<svg class="border shadow-md" viewBox="0 0 1349.04 758.835" style="width: 1349.04px; height: 758.835px;" xmlns="http://www.w3.org/2000/svg" preserveAspectRatio="none"><rect class="bg" id="bg" x="0" y="0" width="1349.04" height="758.835" fill="#f8fff9"/><path d="M 0 -75.8835 L 0 -75.88&#10;                L 96.00 -2.88&#10;                L 269.808 -75.88 L 269.808 -75.88&#10;                L 466.81 -37.94&#10;                L 539.616 -75.88 L 539.616 -75.88&#10;                L 739.62 -24.88&#10;                L 809.424 -75.88 L 809.424 -75.88&#10;                L 899.36 -27.88&#10;                L 1079.232 -75.88 L 1079.232 -75.88&#10;                L 1249.23 -8.88&#10;                L 1349.04 -75.88 L 1349.04 -75.88&#10;                L 1438.98 -37.94&#10;                L 1618.848 -75.88  V 758.84 H 0 V -75.88 Z" fill="#52FA6E"/><path d="M 0 0 L 0 0.00&#10;                L 130.00 37.94&#10;                L 269.808 0.00 L 269.808 0.00&#10;                L 448.81 60.00&#10;                L 539.616 0.00 L 539.616 0.00&#10;                L 629.55 42.00&#10;                L 809.424 0.00 L 809.424 0.00&#10;                L 899.36 37.94&#10;                L 1079.232 0.00 L 1079.232 0.00&#10;                L 1255.23 37.94&#10;                L 1349.04 0.00 L 1349.04 0.00&#10;                L 1438.98 63.00&#10;                L 1618.848 0.00  V 758.84 H 0 V 0.00 Z" fill="#4be66b"/><path d="M 0 75.8835 L 0 75.88&#10;                L 89.94 142.88&#10;                L 269.808 75.88 L 269.808 75.88&#10;                L 363.81 113.83&#10;                L 539.616 75.88 L 539.616 75.88&#10;                L 724.62 135.88&#10;                L 809.424 75.88 L 809.424 75.88&#10;                L 899.36 113.83&#10;                L 1079.232 75.88 L 1079.232 75.88&#10;                L 1169.17 117.88&#10;                L 1349.04 75.88 L 1349.04 75.88&#10;                L 1500.04 119.88&#10;                L 1618.848 75.88  V 758.84 H 0 V 75.88 Z" fill="#44d268"/><path d="M 0 151.767 L 0 151.77&#10;                L 89.94 201.77&#10;                L 269.808 151.77 L 269.808 151.77&#10;                L 359.74 189.71&#10;                L 539.616 151.77 L 539.616 151.77&#10;                L 644.62 189.71&#10;                L 809.424 151.77 L 809.424 151.77&#10;                L 986.42 214.77&#10;                L 1079.232 151.77 L 1079.232 151.77&#10;                L 1185.23 200.77&#10;                L 1349.04 151.77 L 1349.04 151.77&#10;                L 1460.04 189.71&#10;                L 1618.848 151.77  V 758.84 H 0 V 151.77 Z" fill="#3dbe65"/><path d="M 0 227.6505 L 0 227.65&#10;                L 89.94 265.59&#10;                L 269.808 227.65 L 269.808 227.65&#10;                L 359.74 265.59&#10;                L 539.616 227.65 L 539.616 227.65&#10;                L 629.55 291.65&#10;                L 809.424 227.65 L 809.424 227.65&#10;                L 951.42 293.65&#10;                L 1079.232 227.65 L 1079.232 227.65&#10;                L 1220.23 265.59&#10;                L 1349.04 227.65 L 1349.04 227.65&#10;                L 1438.98 290.65&#10;                L 1618.848 227.65  V 758.84 H 0 V 227.65 Z" fill="#36aa62"/><path d="M 0 303.534 L 0 303.53&#10;                L 89.94 362.53&#10;                L 269.808 303.53 L 269.808 303.53&#10;                L 443.81 357.53&#10;                L 539.616 303.53 L 539.616 303.53&#10;                L 629.55 355.53&#10;                L 809.424 303.53 L 809.424 303.53&#10;                L 899.36 365.53&#10;                L 1079.232 303.53 L 1079.232 303.53&#10;                L 1219.23 363.53&#10;                L 1349.04 303.53 L 1349.04 303.53&#10;                L 1527.04 360.53&#10;                L 1618.848 303.53  V 758.84 H 0 V 303.53 Z" fill="#2f965f"/><path d="M 0 379.4175 L 0 379.42&#10;                L 187.00 449.42&#10;                L 269.808 379.42 L 269.808 379.42&#10;                L 410.81 417.36&#10;                L 539.616 379.42 L 539.616 379.42&#10;                L 701.62 433.42&#10;                L 809.424 379.42 L 809.424 379.42&#10;                L 899.36 417.36&#10;                L 1079.232 379.42 L 1079.232 379.42&#10;                L 1239.23 417.36&#10;                L 1349.04 379.42 L 1349.04 379.42&#10;                L 1451.04 417.36&#10;                L 1618.848 379.42  V 758.84 H 0 V 379.42 Z" fill="#28825c"/><path d="M 0 455.301 L 0 455.30&#10;                L 89.94 494.30&#10;                L 269.808 455.30 L 269.808 455.30&#10;                L 395.81 493.24&#10;                L 539.616 455.30 L 539.616 455.30&#10;                L 657.62 525.30&#10;                L 809.424 455.30 L 809.424 455.30&#10;                L 899.36 496.30&#10;                L 1079.232 455.30 L 1079.232 455.30&#10;                L 1201.23 493.24&#10;                L 1349.04 455.30 L 1349.04 455.30&#10;                L 1523.04 501.30&#10;                L 1618.848 455.30  V 758.84 H 0 V 455.30 Z" fill="#216e59"/><path d="M 0 531.1845 L 0 531.18&#10;                L 99.00 599.18&#10;                L 269.808 531.18 L 269.808 531.18&#10;                L 376.81 585.18&#10;                L 539.616 531.18 L 539.616 531.18&#10;                L 695.62 572.18&#10;                L 809.424 531.18 L 809.424 531.18&#10;                L 946.42 569.13&#10;                L 1079.232 531.18 L 1079.232 531.18&#10;                L 1169.17 569.13&#10;                L 1349.04 531.18 L 1349.04 531.18&#10;                L 1438.98 594.18&#10;                L 1618.848 531.18  V 758.84 H 0 V 531.18 Z" fill="#1a5a56"/><path d="M 0 607.068 L 0 607.07&#10;                L 167.00 659.07&#10;                L 269.808 607.07 L 269.808 607.07&#10;                L 441.81 650.07&#10;                L 539.616 607.07 L 539.616 607.07&#10;                L 710.62 645.01&#10;                L 809.424 607.07 L 809.424 607.07&#10;                L 899.36 651.07&#10;                L 1079.232 607.07 L 1079.232 607.07&#10;                L 1213.23 645.01&#10;                L 1349.04 607.07 L 1349.04 607.07&#10;                L 1451.04 645.01&#10;                L 1618.848 607.07  V 758.84 H 0 V 607.07 Z" fill="#134653"/><path d="M 0 682.9515 L 0 682.95&#10;                L 102.00 720.89&#10;                L 269.808 682.95 L 269.808 682.95&#10;                L 455.81 720.89&#10;                L 539.616 682.95 L 539.616 682.95&#10;                L 702.62 720.95&#10;                L 809.424 682.95 L 809.424 682.95&#10;                L 899.36 720.95&#10;                L 1079.232 682.95 L 1079.232 682.95&#10;                L 1169.17 751.95&#10;                L 1349.04 682.95 L 1349.04 682.95&#10;                L 1463.04 736.95&#10;                L 1618.848 682.95  V 758.84 H 0 V 682.95 Z" fill="#0c3250"/></svg>