<svg xmlns="http://www.w3.org/2000/svg" version="1.1" xmlns:xlink="http://www.w3.org/1999/xlink" xmlns:svgjs="http://svgjs.dev/svgjs" width="1440" height="2000" preserveAspectRatio="none" viewBox="0 0 1440 2000"><g mask="url(&quot;#SvgjsMask1030&quot;)" fill="none"><rect width="1440" height="2000" x="0" y="0" fill="rgba(215, 215, 215, 1)"></rect><path d="M963 723L962 1322" stroke-width="6" stroke="url(&quot;#SvgjsLinearGradient1031&quot;)" stroke-linecap="round" class="Down"></path><path d="M1162 833L1161 1437" stroke-width="10" stroke="url(&quot;#SvgjsLinearGradient1032&quot;)" stroke-linecap="round" class="Up"></path><path d="M1006 1126L1005 2486" stroke-width="10" stroke="url(&quot;#SvgjsLinearGradient1032&quot;)" stroke-linecap="round" class="Up"></path><path d="M488 579L487 1444" stroke-width="10" stroke="url(&quot;#SvgjsLinearGradient1031&quot;)" stroke-linecap="round" class="Down"></path><path d="M709 959L708 -77" stroke-width="10" stroke="url(&quot;#SvgjsLinearGradient1032&quot;)" stroke-linecap="round" class="Up"></path><path d="M488 1738L487 502" stroke-width="8" stroke="url(&quot;#SvgjsLinearGradient1031&quot;)" stroke-linecap="round" class="Down"></path><path d="M722 1613L721 545" stroke-width="8" stroke="url(&quot;#SvgjsLinearGradient1032&quot;)" stroke-linecap="round" class="Up"></path><path d="M977 1162L976 2140" stroke-width="10" stroke="url(&quot;#SvgjsLinearGradient1032&quot;)" stroke-linecap="round" class="Up"></path><path d="M1212 597L1211 1716" stroke-width="8" stroke="url(&quot;#SvgjsLinearGradient1032&quot;)" stroke-linecap="round" class="Up"></path><path d="M1236 167L1235 1188" stroke-width="10" stroke="url(&quot;#SvgjsLinearGradient1031&quot;)" stroke-linecap="round" class="Down"></path><path d="M1203 669L1202 1560" stroke-width="10" stroke="url(&quot;#SvgjsLinearGradient1032&quot;)" stroke-linecap="round" class="Up"></path><path d="M872 759L871 1932" stroke-width="8" stroke="url(&quot;#SvgjsLinearGradient1031&quot;)" stroke-linecap="round" class="Down"></path><path d="M327 107L326 719" stroke-width="10" stroke="url(&quot;#SvgjsLinearGradient1031&quot;)" stroke-linecap="round" class="Down"></path><path d="M814 1066L813 1807" stroke-width="10" stroke="url(&quot;#SvgjsLinearGradient1032&quot;)" stroke-linecap="round" class="Up"></path><path d="M1266 1214L1265 2060" stroke-width="8" stroke="url(&quot;#SvgjsLinearGradient1031&quot;)" stroke-linecap="round" class="Down"></path><path d="M346 1867L345 1070" stroke-width="8" stroke="url(&quot;#SvgjsLinearGradient1031&quot;)" stroke-linecap="round" class="Down"></path><path d="M115 703L114 -703" stroke-width="10" stroke="url(&quot;#SvgjsLinearGradient1032&quot;)" stroke-linecap="round" class="Up"></path><path d="M535 1458L534 0" stroke-width="6" stroke="url(&quot;#SvgjsLinearGradient1032&quot;)" stroke-linecap="round" class="Up"></path><path d="M771 1306L770 374" stroke-width="8" stroke="url(&quot;#SvgjsLinearGradient1032&quot;)" stroke-linecap="round" class="Up"></path><path d="M110 1848L109 794" stroke-width="8" stroke="url(&quot;#SvgjsLinearGradient1031&quot;)" stroke-linecap="round" class="Down"></path><path d="M419 257L418 -676" stroke-width="10" stroke="url(&quot;#SvgjsLinearGradient1031&quot;)" stroke-linecap="round" class="Down"></path><path d="M48 843L47 1531" stroke-width="8" stroke="url(&quot;#SvgjsLinearGradient1031&quot;)" stroke-linecap="round" class="Down"></path><path d="M393 843L392 -337" stroke-width="10" stroke="url(&quot;#SvgjsLinearGradient1031&quot;)" stroke-linecap="round" class="Down"></path><path d="M907 1700L906 993" stroke-width="6" stroke="url(&quot;#SvgjsLinearGradient1031&quot;)" stroke-linecap="round" class="Down"></path><path d="M1351 621L1350 1125" stroke-width="6" stroke="url(&quot;#SvgjsLinearGradient1031&quot;)" stroke-linecap="round" class="Down"></path><path d="M1086 1809L1085 2719" stroke-width="6" stroke="url(&quot;#SvgjsLinearGradient1031&quot;)" stroke-linecap="round" class="Down"></path><path d="M1175 587L1174 -213" stroke-width="8" stroke="url(&quot;#SvgjsLinearGradient1031&quot;)" stroke-linecap="round" class="Down"></path><path d="M1401 614L1400 -829" stroke-width="6" stroke="url(&quot;#SvgjsLinearGradient1032&quot;)" stroke-linecap="round" class="Up"></path><path d="M941 646L940 1257" stroke-width="8" stroke="url(&quot;#SvgjsLinearGradient1031&quot;)" stroke-linecap="round" class="Down"></path><path d="M11 612L10 -333" stroke-width="8" stroke="url(&quot;#SvgjsLinearGradient1032&quot;)" stroke-linecap="round" class="Up"></path><path d="M696 17L695 1415" stroke-width="8" stroke="url(&quot;#SvgjsLinearGradient1032&quot;)" stroke-linecap="round" class="Up"></path><path d="M356 984L355 2294" stroke-width="10" stroke="url(&quot;#SvgjsLinearGradient1031&quot;)" stroke-linecap="round" class="Down"></path><path d="M685 545L684 1668" stroke-width="6" stroke="url(&quot;#SvgjsLinearGradient1032&quot;)" stroke-linecap="round" class="Up"></path><path d="M611 1053L610 335" stroke-width="8" stroke="url(&quot;#SvgjsLinearGradient1032&quot;)" stroke-linecap="round" class="Up"></path><path d="M665 860L664 -146" stroke-width="8" stroke="url(&quot;#SvgjsLinearGradient1031&quot;)" stroke-linecap="round" class="Down"></path><path d="M689 353L688 1830" stroke-width="6" stroke="url(&quot;#SvgjsLinearGradient1031&quot;)" stroke-linecap="round" class="Down"></path></g><defs><mask id="SvgjsMask1030"><rect width="1440" height="2000" fill="#ffffff"></rect></mask><linearGradient x1="0%" y1="0%" x2="0%" y2="100%" id="SvgjsLinearGradient1031"><stop stop-color="rgba(255, 142, 35, 0)" offset="0"></stop><stop stop-color="rgba(255, 142, 35, 1)" offset="1"></stop></linearGradient><linearGradient x1="0%" y1="100%" x2="0%" y2="0%" id="SvgjsLinearGradient1032"><stop stop-color="rgba(255, 142, 35, 0)" offset="0"></stop><stop stop-color="rgba(255, 142, 35, 1)" offset="1"></stop></linearGradient></defs></svg>