<svg class="border shadow-md" viewBox="0 0 1349.04 758.835" style="width: 1349.04px; height: 758.835px;" xmlns="http://www.w3.org/2000/svg" preserveAspectRatio="none"><rect class="bg" id="bg" x="0" y="0" width="1349.04" height="758.835" fill="#ffffff"/><path d="M 0 -68.985 L 0 -68.98&#10;                L 89.94 -34.49&#10;                L 269.808 -68.98 L 269.808 -68.98&#10;                L 370.81 -34.49&#10;                L 539.616 -68.98 L 539.616 -68.98&#10;                L 629.55 -21.98&#10;                L 809.424 -68.98 L 809.424 -68.98&#10;                L 899.36 -34.49&#10;                L 1079.232 -68.98 L 1079.232 -68.98&#10;                L 1169.17 -29.98&#10;                L 1349.04 -68.98 L 1349.04 -68.98&#10;                L 1462.04 -8.98&#10;                L 1618.848 -68.98  V 758.84 H 0 V -68.98 Z" fill="#4BDE53"/><path d="M 0 0 L 0 0.00&#10;                L 89.94 41.00&#10;                L 269.808 0.00 L 269.808 0.00&#10;                L 385.81 34.49&#10;                L 539.616 0.00 L 539.616 0.00&#10;                L 629.55 51.00&#10;                L 809.424 0.00 L 809.424 0.00&#10;                L 899.36 34.49&#10;                L 1079.232 0.00 L 1079.232 0.00&#10;                L 1239.23 34.49&#10;                L 1349.04 0.00 L 1349.04 0.00&#10;                L 1438.98 34.49&#10;                L 1618.848 0.00  V 758.84 H 0 V 0.00 Z" fill="#47d34e"/><path d="M 0 68.985 L 0 68.98&#10;                L 99.00 103.48&#10;                L 269.808 68.98 L 269.808 68.98&#10;                L 359.74 103.48&#10;                L 539.616 68.98 L 539.616 68.98&#10;                L 638.62 103.48&#10;                L 809.424 68.98 L 809.424 68.98&#10;                L 899.36 103.48&#10;                L 1079.232 68.98 L 1079.232 68.98&#10;                L 1169.17 114.98&#10;                L 1349.04 68.98 L 1349.04 68.98&#10;                L 1479.04 103.48&#10;                L 1618.848 68.98  V 758.84 H 0 V 68.98 Z" fill="#43c849"/><path d="M 0 137.97 L 0 137.97&#10;                L 131.00 204.97&#10;                L 269.808 137.97 L 269.808 137.97&#10;                L 359.74 172.46&#10;                L 539.616 137.97 L 539.616 137.97&#10;                L 634.62 189.97&#10;                L 809.424 137.97 L 809.424 137.97&#10;                L 899.36 203.97&#10;                L 1079.232 137.97 L 1079.232 137.97&#10;                L 1217.23 184.97&#10;                L 1349.04 137.97 L 1349.04 137.97&#10;                L 1438.98 172.46&#10;                L 1618.848 137.97  V 758.84 H 0 V 137.97 Z" fill="#3fbd44"/><path d="M 0 206.95499999999998 L 0 206.95&#10;                L 89.94 241.45&#10;                L 269.808 206.95 L 269.808 206.95&#10;                L 359.74 241.45&#10;                L 539.616 206.95 L 539.616 206.95&#10;                L 679.62 274.95&#10;                L 809.424 206.95 L 809.424 206.95&#10;                L 903.42 243.95&#10;                L 1079.232 206.95 L 1079.232 206.95&#10;                L 1274.23 241.45&#10;                L 1349.04 206.95 L 1349.04 206.95&#10;                L 1438.98 241.45&#10;                L 1618.848 206.95  V 758.84 H 0 V 206.95 Z" fill="#3bb23f"/><path d="M 0 275.94 L 0 275.94&#10;                L 196.00 310.43&#10;                L 269.808 275.94 L 269.808 275.94&#10;                L 359.74 310.43&#10;                L 539.616 275.94 L 539.616 275.94&#10;                L 629.55 327.94&#10;                L 809.424 275.94 L 809.424 275.94&#10;                L 899.36 313.94&#10;                L 1079.232 275.94 L 1079.232 275.94&#10;                L 1261.23 310.43&#10;                L 1349.04 275.94 L 1349.04 275.94&#10;                L 1447.04 310.43&#10;                L 1618.848 275.94  V 758.84 H 0 V 275.94 Z" fill="#37a73a"/><path d="M 0 344.925 L 0 344.93&#10;                L 118.00 379.42&#10;                L 269.808 344.93 L 269.808 344.93&#10;                L 376.81 405.93&#10;                L 539.616 344.93 L 539.616 344.93&#10;                L 646.62 408.93&#10;                L 809.424 344.93 L 809.424 344.93&#10;                L 899.36 403.93&#10;                L 1079.232 344.93 L 1079.232 344.93&#10;                L 1169.17 379.42&#10;                L 1349.04 344.93 L 1349.04 344.93&#10;                L 1438.98 387.93&#10;                L 1618.848 344.93  V 758.84 H 0 V 344.93 Z" fill="#339c35"/><path d="M 0 413.90999999999997 L 0 413.91&#10;                L 89.94 478.91&#10;                L 269.808 413.91 L 269.808 413.91&#10;                L 445.81 448.40&#10;                L 539.616 413.91 L 539.616 413.91&#10;                L 668.62 448.40&#10;                L 809.424 413.91 L 809.424 413.91&#10;                L 899.36 448.40&#10;                L 1079.232 413.91 L 1079.232 413.91&#10;                L 1276.23 448.40&#10;                L 1349.04 413.91 L 1349.04 413.91&#10;                L 1438.98 459.91&#10;                L 1618.848 413.91  V 758.84 H 0 V 413.91 Z" fill="#2f9130"/><path d="M 0 482.895 L 0 482.89&#10;                L 190.00 517.39&#10;                L 269.808 482.89 L 269.808 482.89&#10;                L 359.74 517.39&#10;                L 539.616 482.89 L 539.616 482.89&#10;                L 629.55 528.89&#10;                L 809.424 482.89 L 809.424 482.89&#10;                L 919.42 521.89&#10;                L 1079.232 482.89 L 1079.232 482.89&#10;                L 1238.23 522.89&#10;                L 1349.04 482.89 L 1349.04 482.89&#10;                L 1438.98 527.89&#10;                L 1618.848 482.89  V 758.84 H 0 V 482.89 Z" fill="#2b862b"/><path d="M 0 551.88 L 0 551.88&#10;                L 90.00 615.88&#10;                L 269.808 551.88 L 269.808 551.88&#10;                L 419.81 600.88&#10;                L 539.616 551.88 L 539.616 551.88&#10;                L 725.62 596.88&#10;                L 809.424 551.88 L 809.424 551.88&#10;                L 899.36 586.37&#10;                L 1079.232 551.88 L 1079.232 551.88&#10;                L 1230.23 586.37&#10;                L 1349.04 551.88 L 1349.04 551.88&#10;                L 1479.04 586.37&#10;                L 1618.848 551.88  V 758.84 H 0 V 551.88 Z" fill="#277b26"/><path d="M 0 620.865 L 0 620.87&#10;                L 89.94 655.36&#10;                L 269.808 620.87 L 269.808 620.87&#10;                L 374.81 655.36&#10;                L 539.616 620.87 L 539.616 620.87&#10;                L 629.55 655.36&#10;                L 809.424 620.87 L 809.424 620.87&#10;                L 997.42 673.87&#10;                L 1079.232 620.87 L 1079.232 620.87&#10;                L 1169.17 655.36&#10;                L 1349.04 620.87 L 1349.04 620.87&#10;                L 1438.98 660.87&#10;                L 1618.848 620.87  V 758.84 H 0 V 620.87 Z" fill="#237021"/><path d="M 0 689.85 L 0 689.85&#10;                L 89.94 724.34&#10;                L 269.808 689.85 L 269.808 689.85&#10;                L 374.81 724.34&#10;                L 539.616 689.85 L 539.616 689.85&#10;                L 629.55 724.34&#10;                L 809.424 689.85 L 809.424 689.85&#10;                L 899.36 724.34&#10;                L 1079.232 689.85 L 1079.232 689.85&#10;                L 1219.23 724.34&#10;                L 1349.04 689.85 L 1349.04 689.85&#10;                L 1438.98 729.85&#10;                L 1618.848 689.85  V 758.84 H 0 V 689.85 Z" fill="#1f651c"/></svg>